<svg xmlns="http://www.w3.org/2000/svg" xmlns:xlink="http://www.w3.org/1999/xlink" id="Layer_1" x="0px" y="0px" viewBox="0 0 478.7 198.7" style="enable-background:new 0 0 478.7 198.7;" xml:space="preserve">
<style type="text/css">
	.st0{fill:none;stroke:#FFFFFF;stroke-width:3.0093;}
	.st1{fill:none;stroke:#FFFFFF;stroke-width:2.5;}
	.st2{fill:#FFFFFF;}
	.st3{fill:none;stroke:#FFFFFF;stroke-width:2.5;stroke-miterlimit:10;}
</style>
<path class="st0" d="M3.3,143.3V50.3h18v93.1H3.3z"></path>
<path class="st0" d="M124.7,143.3h-19.6l-9.8-20.2H63.8l-9.4,20.2H35.4l43.9-94.8L124.7,143.3z M89.6,108.1l-10.3-23l-10,23H89.6z"></path>
<path class="st0" d="M236.9,143.3v-76h-22.4V50.3h62.7v17.1h-22.3v76H236.9z"></path>
<path class="st0" d="M218.9,143.3h-19.6l-9.8-20.2H158l-9.4,20.2h-19.1l43.9-94.8L218.9,143.3z M183.8,108.1l-10.3-23l-10,23H183.8z  "></path>
<g>
	<ellipse class="st1" cx="380.9" cy="99.5" rx="12.7" ry="67.1"></ellipse>
	<ellipse transform="matrix(0.5 -0.866 0.866 0.5 104.2996 379.6212)" class="st1" cx="380.9" cy="99.5" rx="67.1" ry="12.7"></ellipse>
	<ellipse transform="matrix(0.866 -0.5 0.5 0.866 1.2902 203.7841)" class="st1" cx="380.9" cy="99.5" rx="67.1" ry="12.7"></ellipse>
	<ellipse class="st1" cx="380.9" cy="99.5" rx="67.1" ry="12.7"></ellipse>
</g>
<g>
	<path class="st2" d="M1.6,156.9h1.2c0.1,0,0.2,0,0.3,0.1c0.1,0.1,0.1,0.2,0.2,0.3l1.3,5.2c0,0.1,0.1,0.3,0.1,0.4   c0,0.2,0.1,0.3,0.1,0.5c0-0.2,0.1-0.3,0.1-0.5c0-0.1,0.1-0.3,0.1-0.4l1.5-5.2c0-0.1,0.1-0.2,0.2-0.3c0.1-0.1,0.2-0.1,0.3-0.1h0.4   c0.1,0,0.2,0,0.3,0.1c0.1,0.1,0.1,0.2,0.2,0.3l1.5,5.2c0.1,0.3,0.1,0.5,0.2,0.9c0-0.2,0.1-0.3,0.1-0.5c0-0.1,0.1-0.3,0.1-0.4   l1.3-5.2c0-0.1,0.1-0.2,0.2-0.3c0.1-0.1,0.2-0.1,0.3-0.1h1.1l-2.4,8.7H9l-1.7-5.9c0-0.1,0-0.2-0.1-0.2s0-0.2-0.1-0.3   c0,0.1,0,0.2-0.1,0.3s0,0.2-0.1,0.2l-1.7,5.9H4L1.6,156.9z"></path>
	<path class="st2" d="M21.1,161.2c0,0.6-0.1,1.2-0.3,1.8c-0.2,0.5-0.5,1-0.8,1.4c-0.3,0.4-0.8,0.7-1.2,0.9c-0.5,0.2-1,0.3-1.6,0.3   c-0.6,0-1.1-0.1-1.6-0.3c-0.5-0.2-0.9-0.5-1.3-0.9c-0.3-0.4-0.6-0.9-0.8-1.4s-0.3-1.1-0.3-1.8s0.1-1.2,0.3-1.8   c0.2-0.5,0.5-1,0.8-1.4c0.3-0.4,0.8-0.7,1.3-0.9c0.5-0.2,1-0.3,1.6-0.3c0.6,0,1.1,0.1,1.6,0.3c0.5,0.2,0.9,0.5,1.2,0.9   c0.3,0.4,0.6,0.9,0.8,1.4C21,160,21.1,160.6,21.1,161.2z M19.6,161.2c0-0.5-0.1-0.9-0.2-1.3s-0.3-0.7-0.5-1s-0.5-0.5-0.8-0.6   c-0.3-0.1-0.6-0.2-1-0.2c-0.4,0-0.7,0.1-1,0.2c-0.3,0.1-0.6,0.3-0.8,0.6s-0.4,0.6-0.5,1s-0.2,0.8-0.2,1.3c0,0.5,0.1,0.9,0.2,1.3   s0.3,0.7,0.5,1c0.2,0.3,0.5,0.5,0.8,0.6c0.3,0.1,0.6,0.2,1,0.2c0.4,0,0.7-0.1,1-0.2c0.3-0.1,0.6-0.3,0.8-0.6c0.2-0.3,0.4-0.6,0.5-1   S19.6,161.7,19.6,161.2z"></path>
	<path class="st2" d="M23.7,162.2v3.4h-1.5v-8.7h2.4c0.5,0,1,0.1,1.4,0.2s0.7,0.3,0.9,0.5c0.2,0.2,0.4,0.5,0.5,0.8   c0.1,0.3,0.2,0.6,0.2,1c0,0.3,0,0.6-0.1,0.8c-0.1,0.3-0.2,0.5-0.3,0.7c-0.1,0.2-0.3,0.4-0.5,0.6c-0.2,0.2-0.5,0.3-0.7,0.4   c0.2,0.1,0.3,0.3,0.5,0.5l2,3.2h-1.3c-0.1,0-0.2,0-0.3-0.1c-0.1-0.1-0.2-0.1-0.2-0.2l-1.6-2.8c-0.1-0.1-0.1-0.2-0.2-0.2   s-0.2-0.1-0.3-0.1H23.7z M23.7,161h0.9c0.3,0,0.5,0,0.7-0.1c0.2-0.1,0.4-0.2,0.5-0.3c0.1-0.1,0.2-0.3,0.3-0.5   c0.1-0.2,0.1-0.4,0.1-0.6c0-0.4-0.1-0.8-0.4-1c-0.3-0.2-0.7-0.4-1.2-0.4h-0.9V161z"></path>
	<path class="st2" d="M30.8,160.5h0.3c0.1,0,0.2,0,0.3-0.1c0.1,0,0.2-0.1,0.2-0.2l2.2-3c0.1-0.1,0.2-0.2,0.3-0.3   c0.1-0.1,0.2-0.1,0.4-0.1h1.3l-2.6,3.6c-0.1,0.1-0.2,0.2-0.2,0.3s-0.2,0.1-0.2,0.2c0.1,0,0.2,0.1,0.3,0.2c0.1,0.1,0.2,0.2,0.3,0.3   l2.7,4.1h-1.3c-0.2,0-0.3,0-0.4-0.1s-0.2-0.1-0.2-0.2l-2.2-3.2c-0.1-0.1-0.2-0.2-0.2-0.2c-0.1,0-0.2-0.1-0.4-0.1h-0.5v3.8h-1.5   v-8.7h1.5V160.5z"></path>
	<path class="st2" d="M38.5,165.6H37v-8.7h1.5V165.6z"></path>
	<path class="st2" d="M41.1,156.9c0,0,0.1,0,0.1,0c0,0,0.1,0,0.1,0.1s0.1,0.1,0.1,0.1l4.1,5.8c0-0.1,0-0.3,0-0.4c0-0.1,0-0.3,0-0.4   v-5.3h1.3v8.7h-0.8c-0.1,0-0.2,0-0.3-0.1c-0.1,0-0.1-0.1-0.2-0.2l-4.1-5.8c0,0.1,0,0.3,0,0.4s0,0.2,0,0.3v5.3h-1.3v-8.7H41   C41,156.9,41.1,156.9,41.1,156.9z"></path>
	<path class="st2" d="M52,164.4c0.3,0,0.6,0,0.9-0.1c0.2-0.1,0.5-0.2,0.7-0.3v-1.6h-1c-0.1,0-0.2,0-0.2-0.1   c-0.1-0.1-0.1-0.1-0.1-0.2v-0.9h2.6v3.5c-0.2,0.2-0.4,0.3-0.6,0.4s-0.4,0.2-0.7,0.3c-0.2,0.1-0.5,0.1-0.8,0.2   c-0.3,0-0.6,0.1-0.9,0.1c-0.6,0-1.1-0.1-1.6-0.3c-0.5-0.2-0.9-0.5-1.2-0.9c-0.3-0.4-0.6-0.9-0.8-1.4s-0.3-1.1-0.3-1.8   c0-0.7,0.1-1.2,0.3-1.8s0.5-1,0.8-1.4c0.4-0.4,0.8-0.7,1.3-0.9c0.5-0.2,1.1-0.3,1.7-0.3c0.6,0,1.2,0.1,1.7,0.3s0.9,0.5,1.2,0.8   l-0.4,0.7c-0.1,0.1-0.2,0.2-0.3,0.2c-0.1,0-0.2,0-0.3-0.1c-0.1-0.1-0.2-0.2-0.4-0.2s-0.3-0.1-0.4-0.2c-0.1-0.1-0.3-0.1-0.5-0.1   s-0.4-0.1-0.6-0.1c-0.4,0-0.7,0.1-1,0.2c-0.3,0.1-0.6,0.3-0.8,0.6c-0.2,0.3-0.4,0.6-0.5,1s-0.2,0.8-0.2,1.3c0,0.5,0.1,0.9,0.2,1.3   s0.3,0.7,0.5,1c0.2,0.3,0.5,0.5,0.8,0.6C51.3,164.3,51.6,164.4,52,164.4z"></path>
	<path class="st2" d="M63.2,156.9v1.3h-3.5v2.6h2.9v1.3h-2.9v3.5h-1.5v-8.7H63.2z"></path>
	<path class="st2" d="M71.8,161.2c0,0.6-0.1,1.2-0.3,1.8c-0.2,0.5-0.5,1-0.8,1.4c-0.3,0.4-0.8,0.7-1.2,0.9c-0.5,0.2-1,0.3-1.6,0.3   c-0.6,0-1.1-0.1-1.6-0.3c-0.5-0.2-0.9-0.5-1.3-0.9c-0.3-0.4-0.6-0.9-0.8-1.4s-0.3-1.1-0.3-1.8s0.1-1.2,0.3-1.8   c0.2-0.5,0.5-1,0.8-1.4c0.3-0.4,0.8-0.7,1.3-0.9c0.5-0.2,1-0.3,1.6-0.3c0.6,0,1.1,0.1,1.6,0.3c0.5,0.2,0.9,0.5,1.2,0.9   c0.3,0.4,0.6,0.9,0.8,1.4C71.7,160,71.8,160.6,71.8,161.2z M70.3,161.2c0-0.5-0.1-0.9-0.2-1.3s-0.3-0.7-0.5-1s-0.5-0.5-0.8-0.6   c-0.3-0.1-0.6-0.2-1-0.2c-0.4,0-0.7,0.1-1,0.2c-0.3,0.1-0.6,0.3-0.8,0.6s-0.4,0.6-0.5,1s-0.2,0.8-0.2,1.3c0,0.5,0.1,0.9,0.2,1.3   s0.3,0.7,0.5,1c0.2,0.3,0.5,0.5,0.8,0.6c0.3,0.1,0.6,0.2,1,0.2c0.4,0,0.7-0.1,1-0.2c0.3-0.1,0.6-0.3,0.8-0.6c0.2-0.3,0.4-0.6,0.5-1   S70.3,161.7,70.3,161.2z"></path>
	<path class="st2" d="M74.5,162.2v3.4H73v-8.7h2.4c0.5,0,1,0.1,1.4,0.2s0.7,0.3,0.9,0.5c0.2,0.2,0.4,0.5,0.5,0.8   c0.1,0.3,0.2,0.6,0.2,1c0,0.3,0,0.6-0.1,0.8c-0.1,0.3-0.2,0.5-0.3,0.7c-0.1,0.2-0.3,0.4-0.5,0.6c-0.2,0.2-0.5,0.3-0.7,0.4   c0.2,0.1,0.3,0.3,0.5,0.5l2,3.2h-1.3c-0.1,0-0.2,0-0.3-0.1c-0.1-0.1-0.2-0.1-0.2-0.2l-1.6-2.8c-0.1-0.1-0.1-0.2-0.2-0.2   s-0.2-0.1-0.3-0.1H74.5z M74.5,161h0.9c0.3,0,0.5,0,0.7-0.1c0.2-0.1,0.4-0.2,0.5-0.3c0.1-0.1,0.2-0.3,0.3-0.5   c0.1-0.2,0.1-0.4,0.1-0.6c0-0.4-0.1-0.8-0.4-1c-0.3-0.2-0.7-0.4-1.2-0.4h-0.9V161z"></path>
	<path class="st2" d="M87.1,156.9v1.3h-3.5v2.4h2.7v1.2h-2.7v2.5h3.5v1.3h-4.9v-8.7H87.1z"></path>
	<path class="st2" d="M90.2,161.1l-2.5-4.2h1.4c0.1,0,0.2,0,0.2,0c0,0,0.1,0.1,0.1,0.1l1.8,3.2c0-0.1,0-0.1,0.1-0.2   c0,0,0-0.1,0.1-0.2l1.6-2.9c0.1-0.1,0.2-0.2,0.3-0.2h1.4l-2.5,4.1l2.6,4.5h-1.5c-0.1,0-0.2,0-0.2-0.1c-0.1-0.1-0.1-0.1-0.1-0.2   l-1.8-3.3c0,0,0,0.1,0,0.1s0,0.1-0.1,0.1l-1.7,3.1c0,0.1-0.1,0.1-0.1,0.2s-0.1,0.1-0.2,0.1h-1.4L90.2,161.1z"></path>
	<path class="st2" d="M100.9,163.5c0.1,0,0.1,0,0.2,0.1l0.6,0.7c-0.3,0.4-0.7,0.8-1.2,1c-0.5,0.2-1,0.3-1.7,0.3   c-0.6,0-1.1-0.1-1.6-0.3c-0.5-0.2-0.9-0.5-1.2-0.9c-0.3-0.4-0.6-0.9-0.8-1.4s-0.3-1.1-0.3-1.8c0-0.7,0.1-1.2,0.3-1.8s0.5-1,0.8-1.4   c0.4-0.4,0.8-0.7,1.3-0.9c0.5-0.2,1-0.3,1.6-0.3c0.6,0,1.1,0.1,1.5,0.3c0.4,0.2,0.8,0.5,1.1,0.8l-0.5,0.8c0,0-0.1,0.1-0.1,0.1   c0,0-0.1,0.1-0.2,0.1c-0.1,0-0.2,0-0.3-0.1c-0.1-0.1-0.2-0.1-0.3-0.2c-0.1-0.1-0.3-0.2-0.5-0.2c-0.2-0.1-0.5-0.1-0.8-0.1   c-0.4,0-0.7,0.1-1,0.2c-0.3,0.1-0.6,0.3-0.8,0.6c-0.2,0.3-0.4,0.6-0.5,1c-0.1,0.4-0.2,0.8-0.2,1.3c0,0.5,0.1,0.9,0.2,1.3   c0.1,0.4,0.3,0.7,0.5,1c0.2,0.3,0.5,0.5,0.8,0.6c0.3,0.1,0.6,0.2,0.9,0.2c0.2,0,0.4,0,0.5,0c0.2,0,0.3-0.1,0.4-0.1   c0.1-0.1,0.3-0.1,0.4-0.2s0.2-0.2,0.4-0.3c0,0,0.1-0.1,0.1-0.1C100.8,163.6,100.8,163.5,100.9,163.5z"></path>
	<path class="st2" d="M107.7,156.9v1.3h-3.5v2.4h2.7v1.2h-2.7v2.5h3.5v1.3h-4.9v-8.7H107.7z"></path>
	<path class="st2" d="M110.4,164.3h3.1v1.3h-4.6v-8.7h1.5V164.3z"></path>
	<path class="st2" d="M115.9,164.3h3.1v1.3h-4.6v-8.7h1.5V164.3z"></path>
	<path class="st2" d="M125,156.9v1.3h-3.5v2.4h2.7v1.2h-2.7v2.5h3.5v1.3h-4.9v-8.7H125z"></path>
	<path class="st2" d="M127.2,156.9c0,0,0.1,0,0.1,0c0,0,0.1,0,0.1,0.1s0.1,0.1,0.1,0.1l4.1,5.8c0-0.1,0-0.3,0-0.4c0-0.1,0-0.3,0-0.4   v-5.3h1.3v8.7h-0.8c-0.1,0-0.2,0-0.3-0.1c-0.1,0-0.1-0.1-0.2-0.2l-4.1-5.8c0,0.1,0,0.3,0,0.4c0,0.1,0,0.2,0,0.3v5.3h-1.3v-8.7h0.8   C127.1,156.9,127.1,156.9,127.2,156.9z"></path>
	<path class="st2" d="M139.8,163.5c0.1,0,0.1,0,0.2,0.1l0.6,0.7c-0.3,0.4-0.7,0.8-1.2,1c-0.5,0.2-1,0.3-1.7,0.3   c-0.6,0-1.1-0.1-1.6-0.3c-0.5-0.2-0.9-0.5-1.2-0.9c-0.3-0.4-0.6-0.9-0.8-1.4s-0.3-1.1-0.3-1.8c0-0.7,0.1-1.2,0.3-1.8s0.5-1,0.8-1.4   c0.4-0.4,0.8-0.7,1.3-0.9c0.5-0.2,1-0.3,1.6-0.3c0.6,0,1.1,0.1,1.5,0.3c0.4,0.2,0.8,0.5,1.1,0.8l-0.5,0.8c0,0-0.1,0.1-0.1,0.1   c0,0-0.1,0.1-0.2,0.1c-0.1,0-0.2,0-0.3-0.1c-0.1-0.1-0.2-0.1-0.3-0.2c-0.1-0.1-0.3-0.2-0.5-0.2s-0.5-0.1-0.8-0.1   c-0.4,0-0.7,0.1-1,0.2c-0.3,0.1-0.6,0.3-0.8,0.6c-0.2,0.3-0.4,0.6-0.5,1s-0.2,0.8-0.2,1.3c0,0.5,0.1,0.9,0.2,1.3s0.3,0.7,0.5,1   c0.2,0.3,0.5,0.5,0.8,0.6c0.3,0.1,0.6,0.2,0.9,0.2c0.2,0,0.4,0,0.5,0c0.2,0,0.3-0.1,0.4-0.1c0.1-0.1,0.3-0.1,0.4-0.2   c0.1-0.1,0.2-0.2,0.4-0.3c0,0,0.1-0.1,0.1-0.1C139.7,163.6,139.7,163.5,139.8,163.5z"></path>
	<path class="st2" d="M146.6,156.9v1.3h-3.5v2.4h2.7v1.2h-2.7v2.5h3.5v1.3h-4.9v-8.7H146.6z"></path>
	<path class="st2" d="M151.6,165.6h-1.5v-8.7h1.5V165.6z"></path>
	<path class="st2" d="M154.2,156.9c0,0,0.1,0,0.1,0c0,0,0.1,0,0.1,0.1s0.1,0.1,0.1,0.1l4.1,5.8c0-0.1,0-0.3,0-0.4c0-0.1,0-0.3,0-0.4   v-5.3h1.3v8.7h-0.8c-0.1,0-0.2,0-0.3-0.1c-0.1,0-0.1-0.1-0.2-0.2l-4.1-5.8c0,0.1,0,0.3,0,0.4c0,0.1,0,0.2,0,0.3v5.3h-1.3v-8.7h0.8   C154.1,156.9,154.2,156.9,154.2,156.9z"></path>
	<path class="st2" d="M170.4,165.6h-1.1c-0.1,0-0.2,0-0.3-0.1c-0.1-0.1-0.1-0.2-0.2-0.3l-0.6-1.8H165l-0.6,1.8   c0,0.1-0.1,0.2-0.2,0.3c-0.1,0.1-0.2,0.1-0.3,0.1h-1.1l3.1-8.7h1.5L170.4,165.6z M165.4,162.3h2.5l-1-2.9c0-0.1-0.1-0.3-0.1-0.5   c-0.1-0.2-0.1-0.4-0.2-0.6c-0.1,0.2-0.1,0.4-0.1,0.6c0,0.2-0.1,0.3-0.1,0.5L165.4,162.3z"></path>
	<path class="st2" d="M172.2,156.9c0,0,0.1,0,0.1,0c0,0,0.1,0,0.1,0.1s0.1,0.1,0.1,0.1l4.1,5.8c0-0.1,0-0.3,0-0.4c0-0.1,0-0.3,0-0.4   v-5.3h1.3v8.7h-0.8c-0.1,0-0.2,0-0.3-0.1c-0.1,0-0.1-0.1-0.2-0.2l-4.1-5.8c0,0.1,0,0.3,0,0.4c0,0.1,0,0.2,0,0.3v5.3h-1.3v-8.7h0.8   C172.1,156.9,172.1,156.9,172.2,156.9z"></path>
	<path class="st2" d="M181,165.6h-1.5v-8.7h1.5V165.6z"></path>
	<path class="st2" d="M186.9,162.4c0.1,0.1,0.1,0.3,0.2,0.4c0-0.1,0.1-0.3,0.2-0.4s0.1-0.3,0.2-0.4l2.3-4.8c0-0.1,0.1-0.1,0.1-0.1   c0,0,0.1-0.1,0.1-0.1c0,0,0.1,0,0.1,0s0.1,0,0.2,0h1.1v8.7H190V160c0-0.1,0-0.2,0-0.3c0-0.1,0-0.2,0-0.4l-2.4,4.9   c-0.1,0.1-0.1,0.2-0.2,0.3c-0.1,0.1-0.2,0.1-0.3,0.1h-0.2c-0.1,0-0.2,0-0.3-0.1c-0.1-0.1-0.2-0.1-0.2-0.3l-2.4-4.9   c0,0.1,0,0.3,0,0.4c0,0.1,0,0.2,0,0.4v5.6h-1.3v-8.7h1.1c0.1,0,0.1,0,0.2,0s0.1,0,0.1,0c0,0,0.1,0,0.1,0.1c0,0,0.1,0.1,0.1,0.1   l2.3,4.8C186.8,162.1,186.8,162.2,186.9,162.4z"></path>
	<path class="st2" d="M199.7,165.6h-1.1c-0.1,0-0.2,0-0.3-0.1c-0.1-0.1-0.1-0.2-0.2-0.3l-0.6-1.8h-3.2l-0.6,1.8   c0,0.1-0.1,0.2-0.2,0.3c-0.1,0.1-0.2,0.1-0.3,0.1h-1.1l3.1-8.7h1.5L199.7,165.6z M194.7,162.3h2.5l-1-2.9c0-0.1-0.1-0.3-0.1-0.5   c-0.1-0.2-0.1-0.4-0.2-0.6c-0.1,0.2-0.1,0.4-0.1,0.6c0,0.2-0.1,0.3-0.1,0.5L194.7,162.3z"></path>
	<path class="st2" d="M202,164.3h3.1v1.3h-4.6v-8.7h1.5V164.3z"></path>
	<path class="st2" d="M213.7,156.9v1.3h-2.3v7.3h-1.5v-7.3h-2.4v-1.3H213.7z"></path>
	<path class="st2" d="M221.2,165.6h-1.5v-3.8h-3.7v3.8h-1.5v-8.7h1.5v3.7h3.7v-3.7h1.5V165.6z"></path>
	<path class="st2" d="M227.7,156.9v1.3h-3.5v2.4h2.7v1.2h-2.7v2.5h3.5v1.3h-4.9v-8.7H227.7z"></path>
	<path class="st2" d="M230.5,162.2v3.4H229v-8.7h2.4c0.5,0,1,0.1,1.4,0.2s0.7,0.3,0.9,0.5c0.2,0.2,0.4,0.5,0.5,0.8   c0.1,0.3,0.2,0.6,0.2,1c0,0.3,0,0.6-0.1,0.8c-0.1,0.3-0.2,0.5-0.3,0.7c-0.1,0.2-0.3,0.4-0.5,0.6s-0.5,0.3-0.7,0.4   c0.2,0.1,0.3,0.3,0.5,0.5l2,3.2h-1.3c-0.1,0-0.2,0-0.3-0.1c-0.1-0.1-0.2-0.1-0.2-0.2l-1.6-2.8c-0.1-0.1-0.1-0.2-0.2-0.2   s-0.2-0.1-0.3-0.1H230.5z M230.5,161h0.9c0.3,0,0.5,0,0.7-0.1s0.4-0.2,0.5-0.3c0.1-0.1,0.2-0.3,0.3-0.5c0.1-0.2,0.1-0.4,0.1-0.6   c0-0.4-0.1-0.8-0.4-1c-0.3-0.2-0.7-0.4-1.2-0.4h-0.9V161z"></path>
	<path class="st2" d="M242.9,165.6h-1.1c-0.1,0-0.2,0-0.3-0.1c-0.1-0.1-0.1-0.2-0.2-0.3l-0.6-1.8h-3.2l-0.6,1.8   c0,0.1-0.1,0.2-0.2,0.3c-0.1,0.1-0.2,0.1-0.3,0.1h-1.1l3.1-8.7h1.5L242.9,165.6z M237.8,162.3h2.5l-1-2.9c0-0.1-0.1-0.3-0.1-0.5   c-0.1-0.2-0.1-0.4-0.2-0.6c-0.1,0.2-0.1,0.4-0.1,0.6c0,0.2-0.1,0.3-0.1,0.5L237.8,162.3z"></path>
	<path class="st2" d="M245.2,162.5v3.1h-1.5v-8.7h2.5c0.5,0,1,0.1,1.4,0.2c0.4,0.1,0.7,0.3,0.9,0.6c0.2,0.2,0.4,0.5,0.6,0.9   c0.1,0.3,0.2,0.7,0.2,1.1c0,0.4-0.1,0.8-0.2,1.2s-0.3,0.7-0.6,0.9s-0.6,0.4-0.9,0.6c-0.4,0.1-0.8,0.2-1.3,0.2H245.2z M245.2,161.3   h1.1c0.3,0,0.5,0,0.7-0.1s0.4-0.2,0.5-0.3s0.2-0.3,0.3-0.5c0.1-0.2,0.1-0.4,0.1-0.7c0-0.2,0-0.4-0.1-0.6c-0.1-0.2-0.2-0.3-0.3-0.5   c-0.1-0.1-0.3-0.2-0.5-0.3c-0.2-0.1-0.4-0.1-0.7-0.1h-1.1V161.3z"></path>
	<path class="st2" d="M253.9,162.2v3.4h-1.5v-3.4l-2.8-5.3h1.3c0.1,0,0.2,0,0.3,0.1c0.1,0.1,0.1,0.2,0.2,0.3l1.4,2.9   c0.1,0.2,0.2,0.3,0.2,0.5c0.1,0.2,0.1,0.3,0.2,0.5c0-0.2,0.1-0.3,0.2-0.5c0.1-0.2,0.1-0.3,0.2-0.5l1.4-2.9c0-0.1,0.1-0.2,0.2-0.2   c0.1-0.1,0.2-0.1,0.3-0.1h1.3L253.9,162.2z"></path>
</g>
<path class="st2" d="M372.6,176.6l2.3,0.2l-1.1,12.2l-2.3-0.2L372.6,176.6z"></path>
<path class="st2" d="M365.8,188.1c-0.1,0-0.1-0.1-0.2-0.1c0,0-0.1-0.1-0.1-0.1c0-0.1-0.1-0.1-0.1-0.2l-4.6-9.4c0,0.2,0,0.4-0.1,0.6  c0,0.2-0.1,0.4-0.1,0.5l-1.6,7.3l-2-0.4l2.6-12l1.2,0.2c0.2,0,0.3,0.1,0.4,0.2c0.1,0.1,0.2,0.2,0.3,0.4l4.6,9.3c0-0.2,0-0.4,0.1-0.5  c0-0.2,0.1-0.3,0.1-0.5l1.6-7.4l2,0.4l-2.6,12l-1.2-0.2C366,188.2,365.9,188.1,365.8,188.1z"></path>
<path class="st2" d="M345,182l0.7-1.8l3.5,1.3l3.6-9.8l2.1,0.8l-3.6,9.8l3.5,1.3l-0.7,1.8L345,182z"></path>
<path class="st2" d="M335.3,177l0.8-1.6l4.8,2.5l1.6-3l-3.8-2l0.8-1.6l3.8,2l1.6-3.1l-4.8-2.5l0.9-1.6l6.9,3.6l-5.7,10.9L335.3,177z  "></path>
<path class="st2" d="M334.7,167.7l2.8-3.9l1.9,1.3l-7.1,10l-3.1-2.2c-0.7-0.5-1.2-1-1.6-1.5c-0.4-0.5-0.6-1-0.8-1.4  c-0.1-0.5-0.1-0.9,0-1.4c0.1-0.5,0.3-0.9,0.6-1.3c0.2-0.3,0.5-0.6,0.8-0.9c0.3-0.2,0.6-0.4,1-0.5c0.4-0.1,0.7-0.2,1.2-0.2  c0.4,0,0.8,0.1,1.3,0.2c-0.1-0.3-0.2-0.6-0.2-1l0.1-5.5l1.7,1.2c0.2,0.1,0.3,0.2,0.3,0.4c0.1,0.1,0.1,0.3,0.1,0.5l-0.2,4.7  c0,0.2,0,0.3,0.1,0.4c0.1,0.1,0.2,0.2,0.4,0.4L334.7,167.7z M333.7,169l-1.2-0.8c-0.4-0.2-0.7-0.4-1-0.5c-0.3-0.1-0.6-0.1-0.9-0.1  c-0.3,0-0.5,0.1-0.8,0.3s-0.4,0.4-0.6,0.6c-0.4,0.5-0.5,1-0.3,1.5c0.1,0.5,0.6,1,1.2,1.5l1.2,0.8L333.7,169z"></path>
<path class="st2" d="M320.8,166.4c0-0.1-0.1-0.1-0.1-0.2c0-0.1,0-0.1,0-0.2c0-0.1,0-0.2,0-0.3l1.1-10.4c-0.1,0.2-0.2,0.3-0.4,0.5  c-0.1,0.1-0.2,0.3-0.4,0.4l-5.2,5.4l-1.4-1.4l8.6-8.8l0.8,0.8c0.1,0.1,0.2,0.3,0.3,0.4c0,0.1,0.1,0.3,0,0.5l-1.1,10.3  c0.1-0.1,0.2-0.3,0.3-0.4c0.1-0.1,0.2-0.3,0.3-0.4l5.3-5.4l1.4,1.4l-8.6,8.8l-0.9-0.8C320.9,166.5,320.9,166.5,320.8,166.4z"></path>
<path class="st2" d="M315,140.9l1.1,1.4c0.1,0.2,0.2,0.3,0.2,0.5c0,0.2,0,0.3-0.1,0.4l-1.5,2.2l3,4.1l2.6-0.8c0.1,0,0.3,0,0.4,0  c0.2,0,0.3,0.1,0.4,0.3l1.1,1.4l-12.7,3.4l-1.4-1.9L315,140.9z M316,150l-2.3-3.1l-2.4,3.6c-0.1,0.2-0.2,0.4-0.4,0.6  c-0.1,0.2-0.3,0.4-0.5,0.7c0.3-0.1,0.5-0.2,0.8-0.3c0.2-0.1,0.5-0.2,0.7-0.2L316,150z"></path>
<path class="st2" d="M300.1,139.2l1.6-0.9l1.8,3.2l9.1-5.1l1.1,2l-9.1,5.1l1.8,3.2l-1.6,0.9L300.1,139.2z"></path>
<path class="st2" d="M309.3,129.4l0.9,2.1l-11.3,4.8l-0.9-2.1L309.3,129.4z"></path>
<path class="st2" d="M298.8,117.3c0.9-0.3,1.7-0.4,2.5-0.3c0.8,0.1,1.6,0.3,2.3,0.6s1.3,0.9,1.8,1.5c0.5,0.6,0.9,1.4,1.2,2.3  c0.3,0.9,0.4,1.7,0.3,2.6s-0.3,1.6-0.7,2.3c-0.4,0.7-0.9,1.3-1.5,1.8c-0.7,0.5-1.4,0.9-2.3,1.1c-0.9,0.3-1.7,0.4-2.5,0.3  c-0.8-0.1-1.6-0.3-2.3-0.6c-0.7-0.4-1.3-0.9-1.8-1.5c-0.5-0.6-0.9-1.4-1.2-2.3c-0.3-0.9-0.4-1.7-0.3-2.6c0.1-0.8,0.3-1.6,0.7-2.3  c0.4-0.7,0.9-1.3,1.5-1.8C297.2,118,298,117.6,298.8,117.3z M299.5,119.6c-0.6,0.2-1.2,0.5-1.7,0.8c-0.5,0.3-0.8,0.7-1.1,1.1  c-0.3,0.4-0.4,0.9-0.5,1.4c-0.1,0.5,0,1.1,0.2,1.6c0.2,0.6,0.4,1.1,0.7,1.5c0.3,0.4,0.7,0.7,1.2,0.9c0.5,0.2,1,0.3,1.5,0.4  c0.6,0,1.2-0.1,1.8-0.3c0.6-0.2,1.2-0.5,1.7-0.8c0.5-0.3,0.8-0.7,1.1-1.1c0.3-0.4,0.4-0.9,0.5-1.4c0.1-0.5,0-1.1-0.2-1.6  c-0.2-0.6-0.4-1.1-0.7-1.5c-0.3-0.4-0.7-0.7-1.2-0.9c-0.5-0.2-1-0.3-1.5-0.3C300.7,119.3,300.1,119.4,299.5,119.6z"></path>
<path class="st2" d="M292.1,113.9c0-0.1,0-0.1,0-0.2c0-0.1,0-0.1,0.1-0.2c0-0.1,0.1-0.1,0.2-0.2l7.4-7.4c-0.2,0-0.4,0.1-0.6,0.1  c-0.2,0-0.4,0.1-0.5,0.1l-7.4,0.9l-0.2-2l12.2-1.5l0.1,1.2c0,0.2,0,0.3,0,0.5c0,0.1-0.1,0.3-0.3,0.4l-7.4,7.4c0.2,0,0.4-0.1,0.5-0.1  c0.2,0,0.3-0.1,0.5-0.1l7.5-0.9l0.2,2l-12.2,1.5l-0.1-1.2C292.1,114,292.1,113.9,292.1,113.9z"></path>
<path class="st2" d="M303.6,90.4l-0.1,1.8c0,0.2-0.1,0.4-0.2,0.5c-0.1,0.1-0.2,0.2-0.4,0.3l-2.5,0.8l-0.2,5.1l2.5,1  c0.1,0.1,0.2,0.1,0.3,0.3c0.1,0.1,0.1,0.3,0.1,0.5l-0.1,1.8L291,97l0.1-2.3L303.6,90.4z M298.6,98.1l0.2-3.9l-4.1,1.3  c-0.2,0.1-0.4,0.1-0.7,0.2c-0.2,0.1-0.5,0.1-0.8,0.2c0.3,0.1,0.6,0.2,0.8,0.3c0.2,0.1,0.5,0.2,0.6,0.3L298.6,98.1z"></path>
<path class="st2" d="M302.4,86.5l0.9-4.8l1.9,0.3l-1.3,7.1L291.8,87l0.4-2.3L302.4,86.5z"></path>
<path class="st2" d="M299.1,75.8c-0.2,0-0.3-0.1-0.4-0.2c-0.1-0.1-0.2-0.2-0.3-0.3c-0.1-0.1-0.1-0.3-0.1-0.4c0-0.1,0-0.3,0-0.5  c0-0.1,0.1-0.3,0.2-0.4c0.1-0.1,0.2-0.2,0.3-0.3c0.1-0.1,0.3-0.1,0.4-0.1c0.1,0,0.3,0,0.5,0c0.1,0,0.3,0.1,0.4,0.2  c0.1,0.1,0.2,0.2,0.3,0.3c0.1,0.1,0.1,0.3,0.1,0.4c0,0.2,0,0.3,0,0.5c0,0.2-0.1,0.3-0.2,0.4c-0.1,0.1-0.2,0.2-0.3,0.3  c-0.1,0.1-0.3,0.1-0.4,0.1C299.4,75.8,299.2,75.8,299.1,75.8z"></path>
<path class="st2" d="M313,61.4l-0.7,1.6c-0.1,0.2-0.2,0.3-0.3,0.4c-0.1,0.1-0.3,0.1-0.5,0.1l-2.7-0.2l-2.1,4.6l1.9,1.9  c0.1,0.1,0.2,0.2,0.2,0.4c0,0.2,0,0.3-0.1,0.5l-0.7,1.6l-9.1-9.5l1-2.1L313,61.4z M305.4,66.7l1.6-3.6l-4.3-0.4  c-0.2,0-0.4,0-0.7-0.1c-0.3,0-0.5-0.1-0.8-0.1c0.2,0.2,0.4,0.4,0.6,0.6c0.2,0.2,0.4,0.3,0.5,0.5L305.4,66.7z"></path>
<path class="st2" d="M308.8,49.4c0.1,0.1,0.1,0.2,0.1,0.3c0,0.1,0,0.2-0.1,0.3c-0.1,0.1-0.2,0.2-0.3,0.3c-0.2,0.1-0.3,0.2-0.5,0.3  c-0.2,0.1-0.4,0.2-0.6,0.4s-0.4,0.4-0.6,0.7c-0.2,0.3-0.3,0.5-0.3,0.8s-0.1,0.5-0.1,0.7c0,0.2,0.1,0.4,0.2,0.6  c0.1,0.2,0.3,0.3,0.5,0.4c0.2,0.2,0.5,0.2,0.7,0.2c0.2,0,0.5-0.1,0.8-0.3c0.3-0.2,0.5-0.3,0.8-0.6c0.3-0.2,0.6-0.5,0.9-0.7  c0.3-0.2,0.6-0.4,0.9-0.6c0.3-0.2,0.7-0.3,1-0.4c0.4-0.1,0.7-0.1,1.1-0.1c0.4,0.1,0.8,0.2,1.2,0.5c0.5,0.3,0.9,0.7,1.2,1.1  c0.3,0.4,0.5,0.9,0.6,1.4c0.1,0.5,0.1,1,0,1.6c-0.1,0.6-0.3,1.1-0.7,1.7c-0.2,0.3-0.5,0.6-0.7,0.9c-0.3,0.3-0.6,0.5-0.9,0.7  c-0.3,0.2-0.6,0.4-1,0.5c-0.3,0.1-0.7,0.3-1,0.3l-0.6-1.1c0-0.1,0-0.2,0-0.3c0-0.1,0-0.2,0.1-0.3c0.1-0.1,0.2-0.2,0.4-0.3  c0.2-0.1,0.4-0.2,0.6-0.3c0.2-0.1,0.5-0.3,0.8-0.5c0.3-0.2,0.5-0.5,0.7-0.8c0.4-0.5,0.5-1.1,0.4-1.5c-0.1-0.5-0.3-0.9-0.8-1.2  c-0.3-0.2-0.5-0.2-0.8-0.2c-0.3,0-0.5,0.1-0.8,0.3c-0.3,0.1-0.5,0.3-0.8,0.6c-0.3,0.2-0.5,0.5-0.8,0.7c-0.3,0.2-0.6,0.5-0.9,0.7  c-0.3,0.2-0.7,0.3-1,0.4c-0.4,0.1-0.7,0.1-1.2,0c-0.4-0.1-0.9-0.3-1.3-0.6c-0.4-0.2-0.7-0.6-1-0.9c-0.3-0.4-0.4-0.8-0.5-1.3  c-0.1-0.5-0.1-1,0-1.5s0.3-1.1,0.7-1.6c0.4-0.6,0.8-1.1,1.4-1.5c0.5-0.4,1.1-0.7,1.6-0.8L308.8,49.4z"></path>
<path class="st2" d="M315.2,41.3c0.1,0.1,0.1,0.2,0.1,0.3c0,0.1-0.1,0.2-0.1,0.3c-0.1,0.1-0.2,0.2-0.3,0.2c-0.2,0.1-0.3,0.1-0.5,0.2  c-0.2,0.1-0.4,0.2-0.7,0.3c-0.2,0.1-0.5,0.4-0.7,0.6c-0.2,0.2-0.3,0.5-0.4,0.7c-0.1,0.2-0.1,0.5-0.1,0.7c0,0.2,0.1,0.4,0.1,0.6  c0.1,0.2,0.2,0.3,0.4,0.5c0.2,0.2,0.5,0.3,0.7,0.3c0.3,0,0.5-0.1,0.8-0.2c0.3-0.1,0.6-0.3,0.9-0.5c0.3-0.2,0.6-0.4,0.9-0.6  c0.3-0.2,0.6-0.4,1-0.5c0.3-0.2,0.7-0.3,1.1-0.3c0.4-0.1,0.7,0,1.1,0.1c0.4,0.1,0.8,0.3,1.2,0.6c0.4,0.4,0.8,0.8,1,1.2  c0.3,0.5,0.4,0.9,0.5,1.4c0,0.5,0,1-0.2,1.6c-0.2,0.5-0.5,1.1-0.9,1.6c-0.2,0.3-0.5,0.6-0.8,0.8c-0.3,0.2-0.6,0.5-0.9,0.6  c-0.3,0.2-0.7,0.3-1,0.4c-0.3,0.1-0.7,0.2-1,0.2l-0.4-1.2c0-0.1,0-0.2,0-0.3c0-0.1,0.1-0.2,0.1-0.3c0.1-0.1,0.2-0.2,0.4-0.2  c0.2-0.1,0.4-0.1,0.7-0.2c0.3-0.1,0.5-0.2,0.8-0.4c0.3-0.2,0.6-0.4,0.8-0.7c0.4-0.5,0.6-1,0.6-1.5c0-0.5-0.2-0.9-0.7-1.3  c-0.3-0.2-0.5-0.3-0.8-0.3c-0.3,0-0.5,0.1-0.8,0.2c-0.3,0.1-0.6,0.3-0.8,0.5c-0.3,0.2-0.6,0.4-0.9,0.6c-0.3,0.2-0.6,0.4-1,0.5  c-0.3,0.2-0.7,0.3-1.1,0.3c-0.4,0-0.7,0-1.1-0.1c-0.4-0.1-0.8-0.4-1.2-0.7c-0.3-0.3-0.6-0.6-0.8-1c-0.2-0.4-0.3-0.8-0.4-1.3  c0-0.5,0-1,0.2-1.5c0.2-0.5,0.4-1,0.9-1.5c0.5-0.6,1-1,1.5-1.3c0.6-0.3,1.1-0.5,1.7-0.6L315.2,41.3z"></path>
<path class="st2" d="M329.2,33.3c0.6,0.7,1.1,1.4,1.3,2.2s0.4,1.5,0.4,2.3c0,0.8-0.2,1.5-0.6,2.3c-0.4,0.7-0.9,1.4-1.6,2.1  c-0.7,0.6-1.4,1.1-2.2,1.4c-0.8,0.3-1.6,0.4-2.3,0.4c-0.8,0-1.5-0.3-2.3-0.6c-0.7-0.4-1.4-0.9-2-1.6c-0.6-0.7-1.1-1.4-1.3-2.2  c-0.3-0.8-0.4-1.5-0.4-2.3c0-0.8,0.2-1.5,0.6-2.3c0.4-0.7,0.9-1.4,1.6-2.1c0.7-0.6,1.4-1.1,2.2-1.4c0.8-0.3,1.6-0.4,2.3-0.3  c0.8,0,1.5,0.3,2.3,0.6C327.9,32.1,328.6,32.6,329.2,33.3z M327.4,34.8c-0.5-0.5-0.9-0.9-1.4-1.2c-0.5-0.3-1-0.4-1.5-0.5  c-0.5-0.1-1,0-1.5,0.2c-0.5,0.2-1,0.5-1.4,0.9c-0.4,0.4-0.8,0.8-1,1.3c-0.2,0.5-0.3,1-0.3,1.5c0,0.5,0.1,1,0.3,1.5  c0.2,0.5,0.6,1,1,1.5c0.5,0.5,0.9,0.9,1.4,1.2c0.5,0.3,1,0.4,1.5,0.5c0.5,0,1,0,1.5-0.2c0.5-0.2,1-0.5,1.4-0.9  c0.4-0.4,0.8-0.8,1-1.3c0.2-0.5,0.3-1,0.3-1.5c0-0.5-0.1-1-0.3-1.5C328.2,35.8,327.9,35.3,327.4,34.8z"></path>
<path class="st2" d="M340.3,29.8c0.1-0.1,0.2-0.1,0.3-0.1l1.3,0.3c-0.1,0.8-0.3,1.5-0.8,2.2c-0.4,0.7-1.1,1.3-1.9,1.8  c-0.8,0.5-1.5,0.8-2.3,0.9c-0.8,0.1-1.5,0.1-2.3-0.1c-0.7-0.2-1.4-0.5-2.1-1c-0.7-0.5-1.2-1.1-1.7-1.9c-0.5-0.8-0.8-1.6-1-2.4  c-0.2-0.8-0.2-1.6,0-2.4c0.2-0.8,0.5-1.5,1-2.2c0.5-0.7,1.1-1.3,1.9-1.8c0.8-0.5,1.5-0.8,2.2-0.9c0.7-0.1,1.4-0.1,2.1,0l-0.1,1.3  c0,0.1,0,0.2,0,0.2c0,0.1-0.1,0.2-0.2,0.2c-0.1,0.1-0.2,0.1-0.4,0.1c-0.2,0-0.4,0-0.6,0c-0.2,0-0.5,0.1-0.8,0.2s-0.7,0.3-1.1,0.5  c-0.5,0.3-0.9,0.7-1.2,1.1c-0.3,0.4-0.5,0.9-0.6,1.4c-0.1,0.5-0.1,1,0.1,1.6c0.1,0.6,0.4,1.1,0.7,1.7c0.4,0.6,0.8,1,1.3,1.4  c0.5,0.3,0.9,0.6,1.4,0.7c0.5,0.1,1,0.1,1.5,0.1c0.5-0.1,0.9-0.3,1.4-0.6c0.3-0.2,0.5-0.3,0.7-0.5c0.2-0.2,0.4-0.3,0.5-0.5  c0.1-0.2,0.3-0.4,0.4-0.6c0.1-0.2,0.2-0.4,0.2-0.7c0-0.1,0-0.1,0.1-0.2C340.2,29.9,340.2,29.9,340.3,29.8z"></path>
<path class="st2" d="M346.8,29.7l-2,1l-5.5-11l2-1L346.8,29.7z"></path>
<path class="st2" d="M359.4,24.6l-1.7,0.6c-0.2,0.1-0.4,0.1-0.5,0c-0.2,0-0.3-0.1-0.4-0.2l-1.7-2l-4.8,1.8l0,2.7  c0,0.1,0,0.3-0.1,0.4c-0.1,0.1-0.2,0.3-0.4,0.3l-1.7,0.6l0.2-13.2l2.2-0.8L359.4,24.6z M350.4,23.1l3.7-1.4l-2.8-3.3  c-0.1-0.1-0.3-0.3-0.4-0.5c-0.2-0.2-0.3-0.4-0.5-0.7c0,0.3,0,0.6,0.1,0.8c0,0.3,0,0.5,0,0.7L350.4,23.1z"></path>
<path class="st2" d="M365.1,10.8l0.4,1.8l-3.6,0.8l2.4,10.1l-2.2,0.5L359.8,14l-3.6,0.8l-0.4-1.8L365.1,10.8z"></path>
<path class="st2" d="M372.1,22.3l-2.3,0.3l-1.6-12.2l2.3-0.3L372.1,22.3z"></path>
<path class="st2" d="M386.6,15.7c0,0.9-0.1,1.7-0.4,2.5c-0.3,0.8-0.7,1.4-1.3,2c-0.5,0.6-1.2,1-2,1.3c-0.8,0.3-1.6,0.5-2.5,0.5  c-0.9,0-1.8-0.1-2.5-0.5c-0.8-0.3-1.4-0.7-2-1.3s-1-1.2-1.3-2c-0.3-0.8-0.5-1.6-0.5-2.5c0-0.9,0.1-1.7,0.4-2.5  c0.3-0.8,0.7-1.4,1.3-2s1.2-1,2-1.3c0.8-0.3,1.6-0.5,2.5-0.5c0.9,0,1.8,0.1,2.5,0.5c0.8,0.3,1.4,0.7,2,1.3c0.5,0.6,1,1.2,1.3,2  C386.4,13.9,386.6,14.8,386.6,15.7z M384.2,15.7c0-0.7-0.1-1.3-0.3-1.8c-0.2-0.5-0.4-1-0.8-1.4c-0.3-0.4-0.7-0.7-1.2-0.9  c-0.5-0.2-1-0.3-1.6-0.3c-0.6,0-1.1,0.1-1.6,0.3c-0.5,0.2-0.9,0.5-1.2,0.9s-0.6,0.8-0.8,1.4c-0.2,0.5-0.3,1.1-0.3,1.8  c0,0.7,0.1,1.3,0.3,1.8c0.2,0.5,0.4,1,0.8,1.4c0.3,0.4,0.8,0.7,1.2,0.8c0.5,0.2,1,0.3,1.6,0.3c0.6,0,1.1-0.1,1.6-0.3  c0.5-0.2,0.9-0.5,1.2-0.9c0.3-0.4,0.6-0.8,0.8-1.4C384.2,17,384.2,16.3,384.2,15.7z"></path>
<path class="st2" d="M391.8,10.2c0.1,0,0.1,0,0.2,0.1c0,0,0.1,0.1,0.1,0.1s0.1,0.1,0.1,0.2l5,9.2c0-0.2,0-0.4,0-0.6  c0-0.2,0-0.4,0.1-0.5l1.2-7.4l2,0.3l-2,12.1l-1.2-0.2c-0.2,0-0.3-0.1-0.4-0.2c-0.1-0.1-0.2-0.2-0.3-0.4l-5-9.1c0,0.2,0,0.4-0.1,0.5  c0,0.2,0,0.3-0.1,0.5l-1.2,7.4l-2-0.3l2-12.1l1.2,0.2C391.6,10.1,391.7,10.1,391.8,10.2z"></path>
<path class="st2" d="M405.7,18c0-0.1,0.1-0.3,0.2-0.4c0.1-0.1,0.2-0.2,0.3-0.3c0.1-0.1,0.3-0.1,0.4-0.1c0.1,0,0.3,0,0.4,0  c0.1,0,0.3,0.1,0.4,0.2c0.1,0.1,0.2,0.2,0.3,0.3c0.1,0.1,0.1,0.3,0.1,0.4c0,0.2,0,0.3,0,0.4c0,0.1-0.1,0.3-0.2,0.4  c-0.1,0.1-0.2,0.2-0.3,0.3c-0.1,0.1-0.3,0.1-0.4,0.1c-0.2,0-0.3,0-0.5-0.1c-0.1,0-0.3-0.1-0.4-0.2c-0.1-0.1-0.2-0.2-0.3-0.3  c-0.1-0.1-0.1-0.3-0.1-0.4C405.6,18.3,405.6,18.1,405.7,18z"></path>
<path class="st2" d="M423.4,27c-0.4,0.8-0.9,1.5-1.5,2c-0.6,0.6-1.3,1-2,1.2c-0.7,0.3-1.5,0.4-2.3,0.3c-0.8-0.1-1.7-0.3-2.5-0.7  c-0.8-0.4-1.5-0.9-2.1-1.5s-0.9-1.3-1.2-2c-0.2-0.7-0.3-1.5-0.3-2.3s0.3-1.6,0.7-2.4c0.4-0.8,0.9-1.5,1.5-2c0.6-0.6,1.3-1,2-1.2  c0.7-0.3,1.5-0.4,2.3-0.3c0.8,0.1,1.7,0.3,2.5,0.7c0.8,0.4,1.5,0.9,2.1,1.5c0.5,0.6,0.9,1.3,1.2,2c0.2,0.7,0.3,1.5,0.3,2.3  C424,25.4,423.8,26.2,423.4,27z M421.3,26c0.3-0.6,0.5-1.2,0.6-1.7c0.1-0.6,0-1.1-0.1-1.6c-0.1-0.5-0.4-0.9-0.7-1.3  c-0.3-0.4-0.8-0.7-1.3-1c-0.5-0.3-1.1-0.4-1.6-0.4c-0.5,0-1,0-1.5,0.2c-0.5,0.2-0.9,0.5-1.3,0.9c-0.4,0.4-0.7,0.9-1,1.5  c-0.3,0.6-0.5,1.2-0.6,1.7c-0.1,0.6,0,1.1,0.1,1.6c0.1,0.5,0.4,0.9,0.7,1.3s0.8,0.7,1.3,1c0.5,0.3,1.1,0.4,1.6,0.4  c0.5,0,1,0,1.5-0.2c0.5-0.2,0.9-0.5,1.3-0.9C420.7,27.1,421,26.6,421.3,26z"></path>
<path class="st2" d="M435.5,27.9l-1,1.5l-4.5-3.1l-2.1,3l3.8,2.6l-1,1.5l-3.8-2.6l-2.8,4.1l-1.9-1.3l7-10.1L435.5,27.9z"></path>
<path class="st2" d="M436.9,35.3c0.1-0.1,0.2-0.2,0.4-0.3c0.1-0.1,0.3-0.1,0.4-0.1s0.3,0,0.4,0.1c0.1,0,0.3,0.1,0.4,0.2  c0.1,0.1,0.2,0.2,0.3,0.4s0.1,0.3,0.1,0.4c0,0.1,0,0.3-0.1,0.4s-0.1,0.3-0.2,0.4c-0.1,0.1-0.2,0.2-0.4,0.3c-0.1,0.1-0.3,0.1-0.4,0.1  c-0.1,0-0.3,0-0.4-0.1c-0.1,0-0.3-0.1-0.4-0.2c-0.1-0.1-0.2-0.2-0.3-0.4c-0.1-0.1-0.1-0.3-0.1-0.4c0-0.1,0-0.3,0.1-0.4  S436.8,35.4,436.9,35.3z"></path>
<path class="st2" d="M444,53.9l-1.1-1.4c-0.1-0.2-0.2-0.3-0.2-0.5c0-0.2,0-0.3,0.1-0.4l1.3-2.3l-3.3-3.9l-2.5,0.9  c-0.1,0-0.3,0.1-0.4,0c-0.2,0-0.3-0.1-0.4-0.3l-1.1-1.4l12.5-4.2l1.5,1.8L444,53.9z M442.4,44.9l2.5,3l2.2-3.8  c0.1-0.2,0.2-0.4,0.3-0.6s0.3-0.5,0.5-0.7c-0.3,0.1-0.5,0.2-0.8,0.3s-0.5,0.2-0.6,0.3L442.4,44.9z"></path>
<path class="st2" d="M455.9,49.9c0,0.1,0,0.1,0.1,0.2c0,0.1,0,0.1,0,0.2c0,0.1,0,0.1-0.1,0.2l-3.7,9.8c0.2-0.1,0.3-0.2,0.5-0.3  c0.2-0.1,0.3-0.2,0.4-0.3l6.4-3.8l1,1.7L450,63.8l-0.6-1c-0.1-0.2-0.1-0.3-0.2-0.4c0-0.1,0-0.3,0.1-0.5l3.7-9.7  c-0.1,0.1-0.3,0.2-0.4,0.3s-0.3,0.2-0.4,0.3l-6.5,3.9l-1-1.7l10.5-6.3l0.6,1C455.9,49.7,455.9,49.8,455.9,49.9z"></path>
<path class="st2" d="M452.1,68.6l-1-2.1l11.1-5.2l1,2.1L452.1,68.6z"></path>
<path class="st2" d="M459.5,75.9c-0.2,0.1-0.3,0.3-0.5,0.4c0.2,0,0.4,0,0.6,0.1c0.2,0,0.4,0.1,0.6,0.1l7.6,1.5c0.1,0,0.2,0,0.2,0.1  c0.1,0,0.1,0.1,0.2,0.1c0,0.1,0.1,0.1,0.1,0.2c0,0.1,0.1,0.2,0.1,0.3l0.5,1.7l-11.8,3.5l-0.6-1.9l7.6-2.3c0.1,0,0.3-0.1,0.5-0.1  c0.2,0,0.3-0.1,0.5-0.1l-7.7-1.6c-0.2,0-0.3-0.1-0.4-0.2c-0.1-0.1-0.2-0.2-0.3-0.4l-0.1-0.3c-0.1-0.2-0.1-0.3,0-0.5  c0-0.2,0.1-0.3,0.3-0.4l5.6-5.6c-0.2,0.1-0.3,0.1-0.5,0.2c-0.2,0.1-0.3,0.1-0.5,0.2l-7.6,2.3l-0.6-1.9l11.8-3.5l0.5,1.7  c0,0.1,0.1,0.2,0.1,0.3c0,0.1,0,0.1,0,0.2c0,0.1,0,0.1-0.1,0.2s-0.1,0.1-0.2,0.2l-5.5,5.5C459.9,75.6,459.7,75.7,459.5,75.9z"></path>
<path class="st2" d="M458.7,96.8l-0.2-1.8c0-0.2,0-0.4,0.1-0.5c0.1-0.1,0.2-0.2,0.3-0.3l2.4-1.2l-0.6-5.1l-2.6-0.6  c-0.1,0-0.3-0.1-0.4-0.2c-0.1-0.1-0.2-0.3-0.2-0.5l-0.2-1.8l12.8,3.4l0.3,2.3L458.7,96.8z M462.4,88.4l0.4,3.9l3.9-1.9  c0.2-0.1,0.4-0.2,0.6-0.3c0.2-0.1,0.5-0.2,0.8-0.3c-0.3,0-0.6-0.1-0.8-0.1c-0.3,0-0.5-0.1-0.7-0.2L462.4,88.4z"></path>
<path class="st2" d="M460.4,100.4l-0.1,4.9l-1.9,0l0.2-7.2l12.3,0.3l-0.1,2.3L460.4,100.4z"></path>
<path class="st2" d="M465.3,110.6c0.2,0,0.3,0.1,0.4,0.2c0.1,0.1,0.2,0.2,0.3,0.3c0.1,0.1,0.2,0.2,0.2,0.4c0,0.1,0,0.3,0,0.5  c0,0.2-0.1,0.3-0.2,0.4c-0.1,0.1-0.2,0.2-0.3,0.3c-0.1,0.1-0.3,0.1-0.4,0.2c-0.1,0-0.3,0-0.5,0c-0.2,0-0.3-0.1-0.4-0.2  c-0.1-0.1-0.2-0.2-0.3-0.3c-0.1-0.1-0.2-0.2-0.2-0.4c0-0.1,0-0.3,0-0.5c0-0.2,0.1-0.3,0.2-0.4c0.1-0.1,0.2-0.2,0.3-0.3  c0.1-0.1,0.2-0.2,0.4-0.2C465,110.6,465.1,110.6,465.3,110.6z"></path>
<path class="st2" d="M466.2,128.1l-1.8-0.5l1-3.6l-10-2.8l0.6-2.2l10,2.8l1-3.6l1.8,0.5L466.2,128.1z"></path>
<path class="st2" d="M449.7,135.7l0.9-2.1l4.9,2.2l2.3-5.3l-4.9-2.2l0.9-2.1l11.2,5l-0.9,2.1l-4.8-2.1l-2.3,5.3l4.8,2.1l-0.9,2.1  L449.7,135.7z"></path>
<path class="st2" d="M454.7,150.9l-1.5-1l2.9-4.6l-2.9-1.8l-2.3,3.6l-1.5-0.9l2.3-3.6l-2.9-1.9l-2.9,4.6l-1.5-1l4.1-6.6l10.4,6.6  L454.7,150.9z"></path>
<path class="st2" d="M445.3,150.9l-3.7-3.1l1.5-1.8l9.4,7.9l-2.4,2.9c-0.5,0.6-1.1,1.1-1.6,1.5c-0.5,0.3-1,0.6-1.5,0.7  c-0.5,0.1-0.9,0.1-1.4-0.1c-0.4-0.1-0.9-0.4-1.3-0.7c-0.3-0.3-0.6-0.6-0.8-0.9c-0.2-0.3-0.3-0.7-0.4-1c-0.1-0.4-0.1-0.8-0.1-1.2  c0-0.4,0.2-0.8,0.3-1.2c-0.3,0.1-0.7,0.2-1,0.1l-5.5-0.6l1.3-1.6c0.1-0.2,0.3-0.3,0.4-0.3c0.1-0.1,0.3-0.1,0.5-0.1l4.7,0.5  c0.2,0,0.3,0,0.4,0c0.1,0,0.3-0.2,0.4-0.3L445.3,150.9z M446.5,151.9l-0.9,1.1c-0.3,0.3-0.5,0.7-0.6,1c-0.1,0.3-0.2,0.6-0.2,0.9  c0,0.3,0.1,0.5,0.2,0.8c0.1,0.2,0.3,0.5,0.6,0.7c0.5,0.4,1,0.6,1.5,0.4c0.5-0.1,1.1-0.5,1.6-1.1l0.9-1.1L446.5,151.9z"></path>
<path class="st2" d="M427.8,161.5l1.3-1.2c0.1-0.1,0.3-0.2,0.5-0.2c0.2,0,0.3,0,0.5,0.1l2.3,1.3l3.8-3.4l-1-2.5  c-0.1-0.1-0.1-0.3,0-0.4c0-0.2,0.1-0.3,0.3-0.4l1.3-1.2l4.5,12.4l-1.8,1.5L427.8,161.5z M436.8,159.7l-2.9,2.6l3.8,2.1  c0.2,0.1,0.4,0.2,0.6,0.3c0.2,0.1,0.5,0.3,0.7,0.4c-0.1-0.3-0.3-0.5-0.4-0.8c-0.1-0.2-0.2-0.5-0.3-0.6L436.8,159.7z"></path>
<path class="st2" d="M427.1,167.1l-2.4-3.6l1.9-1.2l6.7,10.3l-3.4,2.2c-0.7,0.4-1.3,0.8-1.9,0.9c-0.6,0.2-1.2,0.2-1.7,0.1  c-0.5-0.1-1-0.3-1.4-0.6c-0.4-0.3-0.8-0.7-1.1-1.2c-0.3-0.5-0.5-1-0.6-1.5c-0.1-0.5-0.1-1,0-1.6c0.1-0.5,0.4-1,0.8-1.5  c0.4-0.5,0.9-1,1.6-1.4L427.1,167.1z M428.1,168.6l-1.4,0.9c-0.4,0.2-0.6,0.5-0.8,0.7c-0.2,0.3-0.3,0.5-0.4,0.8  c-0.1,0.3-0.1,0.6,0,0.8c0.1,0.3,0.2,0.6,0.4,0.9c0.2,0.3,0.4,0.5,0.6,0.7c0.2,0.2,0.5,0.3,0.8,0.3s0.6,0,0.9-0.1  c0.3-0.1,0.6-0.2,1-0.5l1.4-0.9L428.1,168.6z"></path>
<path class="st2" d="M415.3,169l2-1l5.6,10.9l-2,1L415.3,169z"></path>
<path class="st2" d="M410.4,182c0-0.1,0-0.2,0.1-0.3c0.1-0.1,0.1-0.1,0.2-0.2c0.1,0,0.2,0,0.4,0c0.2,0,0.4,0.1,0.6,0.1s0.5,0,0.7,0  c0.3,0,0.6-0.1,0.9-0.2c0.3-0.1,0.5-0.3,0.7-0.4c0.2-0.2,0.3-0.3,0.4-0.5c0.1-0.2,0.2-0.4,0.2-0.6c0-0.2,0-0.4-0.1-0.6  c-0.1-0.3-0.3-0.5-0.5-0.6c-0.2-0.1-0.5-0.2-0.8-0.2c-0.3,0-0.6,0-1,0c-0.4,0-0.7,0-1.1,0.1c-0.4,0-0.7,0-1.1,0  c-0.4,0-0.7-0.1-1.1-0.2c-0.3-0.1-0.7-0.3-0.9-0.6c-0.3-0.3-0.5-0.6-0.7-1.1c-0.2-0.5-0.3-1-0.3-1.6c0-0.5,0.1-1,0.3-1.5  s0.5-0.9,0.9-1.3c0.4-0.4,0.9-0.7,1.6-1c0.4-0.1,0.7-0.3,1.1-0.3c0.4-0.1,0.8-0.1,1.1-0.1c0.4,0,0.7,0,1.1,0.1  c0.4,0.1,0.7,0.2,1,0.3l-0.2,1.3c0,0.1-0.1,0.2-0.1,0.3c-0.1,0.1-0.1,0.1-0.2,0.2c-0.1,0.1-0.3,0.1-0.5,0c-0.2,0-0.4-0.1-0.7-0.1  c-0.3,0-0.6-0.1-0.9-0.1c-0.3,0-0.7,0.1-1.1,0.2c-0.6,0.2-1,0.6-1.2,1c-0.2,0.4-0.2,0.9,0,1.4c0.1,0.3,0.3,0.5,0.5,0.6  c0.2,0.1,0.5,0.2,0.8,0.2c0.3,0,0.6,0,1,0c0.4,0,0.7-0.1,1.1-0.1c0.4,0,0.7,0,1.1,0c0.4,0,0.7,0.1,1.1,0.2c0.3,0.1,0.7,0.4,1,0.6  c0.3,0.3,0.5,0.7,0.8,1.2c0.2,0.4,0.2,0.9,0.2,1.3c0,0.5-0.1,0.9-0.3,1.3s-0.5,0.8-0.9,1.2c-0.4,0.4-0.9,0.7-1.5,0.9  c-0.7,0.3-1.3,0.4-2,0.4c-0.7,0-1.3-0.1-1.8-0.3L410.4,182z"></path>
<path class="st2" d="M399,187.6l-0.5-1.8l3.6-0.9l-2.7-10.1l2.2-0.6l2.7,10.1l3.6-0.9l0.5,1.8L399,187.6z"></path>
<path class="st2" d="M389.2,186.8c0-0.1,0.1-0.2,0.2-0.3c0.1-0.1,0.2-0.1,0.3-0.1c0.1,0,0.2,0,0.4,0.1c0.2,0.1,0.3,0.1,0.5,0.2  c0.2,0.1,0.4,0.1,0.7,0.2c0.3,0.1,0.6,0.1,0.9,0c0.3,0,0.6-0.1,0.8-0.2c0.2-0.1,0.4-0.2,0.5-0.4s0.2-0.3,0.3-0.5  c0.1-0.2,0.1-0.4,0-0.6c0-0.3-0.2-0.5-0.3-0.7c-0.2-0.2-0.4-0.3-0.7-0.4c-0.3-0.1-0.6-0.2-1-0.2c-0.4-0.1-0.7-0.1-1.1-0.2  c-0.4-0.1-0.7-0.2-1.1-0.3c-0.4-0.1-0.7-0.3-1-0.5c-0.3-0.2-0.5-0.5-0.8-0.8c-0.2-0.3-0.3-0.8-0.4-1.3c-0.1-0.6,0-1.1,0.1-1.6  c0.1-0.5,0.3-1,0.7-1.4c0.3-0.4,0.7-0.7,1.2-1c0.5-0.3,1.1-0.5,1.8-0.5c0.4-0.1,0.8-0.1,1.2,0c0.4,0,0.8,0.1,1.1,0.2  c0.4,0.1,0.7,0.2,1,0.4c0.3,0.2,0.6,0.3,0.9,0.5l-0.5,1.2c-0.1,0.1-0.1,0.2-0.2,0.2c-0.1,0.1-0.2,0.1-0.3,0.1c-0.1,0-0.3,0-0.5-0.1  c-0.2-0.1-0.4-0.2-0.6-0.3c-0.2-0.1-0.5-0.2-0.8-0.3c-0.3-0.1-0.7-0.1-1.1,0c-0.6,0.1-1.1,0.3-1.4,0.7c-0.3,0.4-0.4,0.8-0.4,1.4  c0,0.3,0.2,0.6,0.3,0.8c0.2,0.2,0.4,0.3,0.7,0.4c0.3,0.1,0.6,0.2,0.9,0.2c0.3,0.1,0.7,0.1,1.1,0.2c0.4,0.1,0.7,0.2,1.1,0.3  c0.4,0.1,0.7,0.3,1,0.5c0.3,0.2,0.6,0.5,0.8,0.9c0.2,0.4,0.4,0.8,0.4,1.4c0.1,0.4,0,0.9-0.1,1.3c-0.1,0.4-0.3,0.9-0.6,1.2  c-0.3,0.4-0.7,0.7-1.1,1c-0.5,0.3-1,0.4-1.7,0.5c-0.7,0.1-1.4,0.1-2-0.1c-0.6-0.1-1.2-0.4-1.7-0.7L389.2,186.8z"></path>
<path class="st2" d="M382.8,184.6c0,0.2,0,0.3-0.1,0.4c-0.1,0.1-0.1,0.3-0.2,0.4c-0.1,0.1-0.2,0.2-0.4,0.2c-0.1,0.1-0.3,0.1-0.4,0.1  c-0.2,0-0.3,0-0.4-0.1c-0.1-0.1-0.3-0.1-0.4-0.2c-0.1-0.1-0.2-0.2-0.2-0.4c-0.1-0.1-0.1-0.3-0.1-0.4c0-0.2,0-0.3,0.1-0.4  c0.1-0.1,0.1-0.3,0.2-0.4c0.1-0.1,0.2-0.2,0.4-0.2c0.1-0.1,0.3-0.1,0.4-0.1c0.2,0,0.3,0,0.4,0.1c0.1,0.1,0.3,0.1,0.4,0.2  c0.1,0.1,0.2,0.2,0.2,0.4C382.7,184.3,382.8,184.4,382.8,184.6z"></path>
<circle class="st3" cx="380.9" cy="99.5" r="72.4"></circle>
<circle class="st3" cx="380.9" cy="99.5" r="95.7"></circle>
</svg>